G04 EAGLE Gerber RS-274X export*
G75*
%MOMM*%
%FSLAX34Y34*%
%LPD*%
%INTop Copper*%
%IPPOS*%
%AMOC8*
5,1,8,0,0,1.08239X$1,22.5*%
G01*
%ADD10R,1.200000X1.200000*%
%ADD11R,1.300000X1.600000*%
%ADD12R,1.308000X1.308000*%
%ADD13R,1.800000X1.600000*%
%ADD14C,0.152400*%
%ADD15C,0.254000*%

G36*
X293698Y35564D02*
X293698Y35564D01*
X293717Y35562D01*
X293819Y35584D01*
X293921Y35600D01*
X293938Y35610D01*
X293958Y35614D01*
X294047Y35667D01*
X294138Y35716D01*
X294152Y35730D01*
X294169Y35740D01*
X294236Y35819D01*
X294308Y35894D01*
X294316Y35912D01*
X294329Y35927D01*
X294368Y36023D01*
X294411Y36117D01*
X294413Y36137D01*
X294421Y36155D01*
X294439Y36322D01*
X294439Y188978D01*
X294436Y188998D01*
X294438Y189017D01*
X294416Y189119D01*
X294400Y189221D01*
X294390Y189238D01*
X294386Y189258D01*
X294333Y189347D01*
X294284Y189438D01*
X294270Y189452D01*
X294260Y189469D01*
X294181Y189536D01*
X294106Y189608D01*
X294088Y189616D01*
X294073Y189629D01*
X293977Y189668D01*
X293883Y189711D01*
X293863Y189713D01*
X293845Y189721D01*
X293678Y189739D01*
X99822Y189739D01*
X99802Y189736D01*
X99783Y189738D01*
X99681Y189716D01*
X99579Y189700D01*
X99562Y189690D01*
X99542Y189686D01*
X99453Y189633D01*
X99362Y189584D01*
X99348Y189570D01*
X99331Y189560D01*
X99264Y189481D01*
X99192Y189406D01*
X99184Y189388D01*
X99171Y189373D01*
X99132Y189277D01*
X99089Y189183D01*
X99087Y189163D01*
X99079Y189145D01*
X99061Y188978D01*
X99061Y36322D01*
X99064Y36302D01*
X99062Y36283D01*
X99084Y36181D01*
X99100Y36079D01*
X99110Y36062D01*
X99114Y36042D01*
X99167Y35953D01*
X99216Y35862D01*
X99230Y35848D01*
X99240Y35831D01*
X99319Y35764D01*
X99394Y35692D01*
X99412Y35684D01*
X99427Y35671D01*
X99523Y35632D01*
X99617Y35589D01*
X99637Y35587D01*
X99655Y35579D01*
X99822Y35561D01*
X293678Y35561D01*
X293698Y35564D01*
G37*
%LPC*%
G36*
X180868Y80675D02*
X180868Y80675D01*
X179975Y81568D01*
X179975Y98832D01*
X180868Y99725D01*
X187452Y99725D01*
X187472Y99728D01*
X187491Y99726D01*
X187593Y99748D01*
X187695Y99764D01*
X187712Y99774D01*
X187732Y99778D01*
X187821Y99831D01*
X187912Y99880D01*
X187926Y99894D01*
X187943Y99904D01*
X188010Y99983D01*
X188082Y100058D01*
X188090Y100076D01*
X188103Y100091D01*
X188142Y100187D01*
X188185Y100281D01*
X188187Y100301D01*
X188195Y100319D01*
X188213Y100486D01*
X188213Y118174D01*
X188210Y118194D01*
X188212Y118213D01*
X188190Y118315D01*
X188174Y118417D01*
X188164Y118434D01*
X188160Y118454D01*
X188107Y118543D01*
X188058Y118634D01*
X188044Y118648D01*
X188034Y118665D01*
X187955Y118732D01*
X187880Y118804D01*
X187862Y118812D01*
X187847Y118825D01*
X187751Y118864D01*
X187657Y118907D01*
X187637Y118909D01*
X187619Y118917D01*
X187452Y118935D01*
X183328Y118935D01*
X182435Y119828D01*
X182435Y134172D01*
X183328Y135065D01*
X197672Y135065D01*
X198565Y134172D01*
X198565Y131064D01*
X198568Y131044D01*
X198566Y131025D01*
X198588Y130923D01*
X198604Y130821D01*
X198614Y130804D01*
X198618Y130784D01*
X198671Y130695D01*
X198720Y130604D01*
X198734Y130590D01*
X198744Y130573D01*
X198823Y130506D01*
X198898Y130434D01*
X198916Y130426D01*
X198931Y130413D01*
X199027Y130374D01*
X199121Y130331D01*
X199141Y130329D01*
X199159Y130321D01*
X199326Y130303D01*
X242674Y130303D01*
X242694Y130306D01*
X242713Y130304D01*
X242815Y130326D01*
X242917Y130342D01*
X242934Y130352D01*
X242954Y130356D01*
X243043Y130409D01*
X243134Y130458D01*
X243148Y130472D01*
X243165Y130482D01*
X243232Y130561D01*
X243304Y130636D01*
X243312Y130654D01*
X243325Y130669D01*
X243364Y130765D01*
X243407Y130859D01*
X243409Y130879D01*
X243417Y130897D01*
X243435Y131064D01*
X243435Y135632D01*
X244328Y136525D01*
X258592Y136525D01*
X259485Y135632D01*
X259485Y118368D01*
X258592Y117475D01*
X244328Y117475D01*
X243435Y118368D01*
X243435Y124968D01*
X243432Y124988D01*
X243434Y125007D01*
X243412Y125109D01*
X243396Y125211D01*
X243386Y125228D01*
X243382Y125248D01*
X243329Y125337D01*
X243280Y125428D01*
X243266Y125442D01*
X243256Y125459D01*
X243177Y125526D01*
X243102Y125598D01*
X243084Y125606D01*
X243069Y125619D01*
X242973Y125658D01*
X242879Y125701D01*
X242859Y125703D01*
X242841Y125711D01*
X242674Y125729D01*
X199326Y125729D01*
X199306Y125726D01*
X199287Y125728D01*
X199185Y125706D01*
X199083Y125690D01*
X199066Y125680D01*
X199046Y125676D01*
X198957Y125623D01*
X198866Y125574D01*
X198852Y125560D01*
X198835Y125550D01*
X198768Y125471D01*
X198696Y125396D01*
X198688Y125378D01*
X198675Y125363D01*
X198636Y125267D01*
X198593Y125173D01*
X198591Y125153D01*
X198583Y125135D01*
X198565Y124968D01*
X198565Y119828D01*
X197672Y118935D01*
X193548Y118935D01*
X193528Y118932D01*
X193509Y118934D01*
X193407Y118912D01*
X193305Y118896D01*
X193288Y118886D01*
X193268Y118882D01*
X193179Y118829D01*
X193088Y118780D01*
X193074Y118766D01*
X193057Y118756D01*
X192990Y118677D01*
X192918Y118602D01*
X192910Y118584D01*
X192897Y118569D01*
X192858Y118473D01*
X192815Y118379D01*
X192813Y118359D01*
X192805Y118341D01*
X192787Y118174D01*
X192787Y100486D01*
X192790Y100466D01*
X192788Y100447D01*
X192810Y100345D01*
X192826Y100243D01*
X192836Y100226D01*
X192840Y100206D01*
X192893Y100117D01*
X192942Y100026D01*
X192956Y100012D01*
X192966Y99995D01*
X193045Y99928D01*
X193120Y99856D01*
X193138Y99848D01*
X193153Y99835D01*
X193249Y99796D01*
X193343Y99753D01*
X193363Y99751D01*
X193381Y99743D01*
X193548Y99725D01*
X200132Y99725D01*
X201025Y98832D01*
X201025Y81568D01*
X200132Y80675D01*
X180868Y80675D01*
G37*
%LPD*%
%LPC*%
G36*
X130068Y80675D02*
X130068Y80675D01*
X129175Y81568D01*
X129175Y98832D01*
X130068Y99725D01*
X137160Y99725D01*
X137180Y99728D01*
X137199Y99726D01*
X137301Y99748D01*
X137403Y99764D01*
X137420Y99774D01*
X137440Y99778D01*
X137529Y99831D01*
X137620Y99880D01*
X137634Y99894D01*
X137651Y99904D01*
X137718Y99983D01*
X137790Y100058D01*
X137798Y100076D01*
X137811Y100091D01*
X137850Y100187D01*
X137893Y100281D01*
X137895Y100301D01*
X137903Y100319D01*
X137921Y100486D01*
X137921Y118174D01*
X137918Y118194D01*
X137920Y118213D01*
X137898Y118315D01*
X137882Y118417D01*
X137872Y118434D01*
X137868Y118454D01*
X137815Y118543D01*
X137766Y118634D01*
X137752Y118648D01*
X137742Y118665D01*
X137663Y118732D01*
X137588Y118804D01*
X137570Y118812D01*
X137555Y118825D01*
X137459Y118864D01*
X137365Y118907D01*
X137345Y118909D01*
X137327Y118917D01*
X137160Y118935D01*
X132528Y118935D01*
X131635Y119828D01*
X131635Y131516D01*
X131621Y131606D01*
X131613Y131697D01*
X131601Y131726D01*
X131596Y131758D01*
X131553Y131839D01*
X131517Y131923D01*
X131491Y131955D01*
X131480Y131976D01*
X131457Y131998D01*
X131412Y132054D01*
X127800Y135666D01*
X127726Y135719D01*
X127656Y135779D01*
X127626Y135791D01*
X127600Y135810D01*
X127513Y135837D01*
X127428Y135871D01*
X127387Y135875D01*
X127365Y135882D01*
X127333Y135881D01*
X127261Y135889D01*
X126858Y135889D01*
X125221Y137526D01*
X125221Y168974D01*
X125218Y168994D01*
X125220Y169013D01*
X125198Y169115D01*
X125182Y169217D01*
X125172Y169234D01*
X125168Y169254D01*
X125115Y169343D01*
X125066Y169434D01*
X125052Y169448D01*
X125042Y169465D01*
X124963Y169532D01*
X124888Y169604D01*
X124870Y169612D01*
X124855Y169625D01*
X124759Y169664D01*
X124665Y169707D01*
X124645Y169709D01*
X124627Y169717D01*
X124460Y169735D01*
X119828Y169735D01*
X118935Y170628D01*
X118935Y184972D01*
X119828Y185865D01*
X134172Y185865D01*
X135065Y184972D01*
X135065Y170628D01*
X134172Y169735D01*
X131572Y169735D01*
X131552Y169732D01*
X131533Y169734D01*
X131431Y169712D01*
X131329Y169696D01*
X131312Y169686D01*
X131292Y169682D01*
X131203Y169629D01*
X131112Y169580D01*
X131098Y169566D01*
X131081Y169556D01*
X131014Y169477D01*
X130942Y169402D01*
X130934Y169384D01*
X130921Y169369D01*
X130882Y169273D01*
X130839Y169179D01*
X130837Y169159D01*
X130829Y169141D01*
X130811Y168974D01*
X130811Y139439D01*
X130825Y139348D01*
X130833Y139258D01*
X130845Y139228D01*
X130850Y139196D01*
X130893Y139115D01*
X130929Y139031D01*
X130955Y138999D01*
X130966Y138978D01*
X130989Y138956D01*
X131034Y138900D01*
X134646Y135288D01*
X134720Y135235D01*
X134790Y135175D01*
X134820Y135163D01*
X134846Y135144D01*
X134933Y135117D01*
X135018Y135083D01*
X135059Y135079D01*
X135081Y135072D01*
X135113Y135073D01*
X135184Y135065D01*
X146872Y135065D01*
X147765Y134172D01*
X147765Y119828D01*
X146872Y118935D01*
X143256Y118935D01*
X143236Y118932D01*
X143217Y118934D01*
X143115Y118912D01*
X143013Y118896D01*
X142996Y118886D01*
X142976Y118882D01*
X142887Y118829D01*
X142796Y118780D01*
X142782Y118766D01*
X142765Y118756D01*
X142698Y118677D01*
X142626Y118602D01*
X142618Y118584D01*
X142605Y118569D01*
X142566Y118473D01*
X142523Y118379D01*
X142521Y118359D01*
X142513Y118341D01*
X142495Y118174D01*
X142495Y100486D01*
X142498Y100466D01*
X142496Y100447D01*
X142518Y100345D01*
X142534Y100243D01*
X142544Y100226D01*
X142548Y100206D01*
X142601Y100117D01*
X142650Y100026D01*
X142664Y100012D01*
X142674Y99995D01*
X142753Y99928D01*
X142828Y99856D01*
X142846Y99848D01*
X142861Y99835D01*
X142957Y99796D01*
X143051Y99753D01*
X143071Y99751D01*
X143089Y99743D01*
X143256Y99725D01*
X149332Y99725D01*
X150225Y98832D01*
X150225Y81568D01*
X149332Y80675D01*
X130068Y80675D01*
G37*
%LPD*%
%LPC*%
G36*
X260068Y79175D02*
X260068Y79175D01*
X259175Y80068D01*
X259175Y93332D01*
X260068Y94225D01*
X263652Y94225D01*
X263672Y94228D01*
X263691Y94226D01*
X263793Y94248D01*
X263895Y94264D01*
X263912Y94274D01*
X263932Y94278D01*
X264021Y94331D01*
X264112Y94380D01*
X264126Y94394D01*
X264143Y94404D01*
X264210Y94483D01*
X264282Y94558D01*
X264290Y94576D01*
X264303Y94591D01*
X264342Y94687D01*
X264385Y94781D01*
X264387Y94801D01*
X264395Y94819D01*
X264413Y94986D01*
X264413Y112199D01*
X273692Y121478D01*
X273745Y121552D01*
X273805Y121622D01*
X273817Y121652D01*
X273836Y121678D01*
X273863Y121765D01*
X273897Y121850D01*
X273901Y121891D01*
X273908Y121913D01*
X273907Y121945D01*
X273915Y122017D01*
X273915Y135632D01*
X274808Y136525D01*
X289072Y136525D01*
X289965Y135632D01*
X289965Y118368D01*
X289072Y117475D01*
X276473Y117475D01*
X276382Y117461D01*
X276292Y117453D01*
X276262Y117441D01*
X276230Y117436D01*
X276149Y117393D01*
X276065Y117357D01*
X276033Y117331D01*
X276012Y117320D01*
X275990Y117297D01*
X275934Y117252D01*
X269210Y110528D01*
X269157Y110454D01*
X269097Y110384D01*
X269085Y110354D01*
X269066Y110328D01*
X269039Y110241D01*
X269005Y110156D01*
X269001Y110115D01*
X268994Y110093D01*
X268995Y110061D01*
X268987Y109989D01*
X268987Y94986D01*
X268990Y94966D01*
X268988Y94947D01*
X269010Y94845D01*
X269026Y94743D01*
X269036Y94726D01*
X269040Y94706D01*
X269093Y94617D01*
X269142Y94526D01*
X269156Y94512D01*
X269166Y94495D01*
X269245Y94428D01*
X269320Y94356D01*
X269338Y94348D01*
X269353Y94335D01*
X269449Y94296D01*
X269543Y94253D01*
X269563Y94251D01*
X269581Y94243D01*
X269748Y94225D01*
X273332Y94225D01*
X274225Y93332D01*
X274225Y80068D01*
X273332Y79175D01*
X260068Y79175D01*
G37*
%LPD*%
%LPC*%
G36*
X141223Y63723D02*
X141223Y63723D01*
X141223Y72741D01*
X149034Y72741D01*
X149681Y72568D01*
X150260Y72233D01*
X150733Y71760D01*
X151068Y71181D01*
X151241Y70534D01*
X151241Y63723D01*
X141223Y63723D01*
G37*
%LPD*%
%LPC*%
G36*
X192023Y63723D02*
X192023Y63723D01*
X192023Y72741D01*
X199834Y72741D01*
X200481Y72568D01*
X201060Y72233D01*
X201533Y71760D01*
X201868Y71181D01*
X202041Y70534D01*
X202041Y63723D01*
X192023Y63723D01*
G37*
%LPD*%
%LPC*%
G36*
X192023Y60677D02*
X192023Y60677D01*
X202041Y60677D01*
X202041Y53866D01*
X201868Y53219D01*
X201533Y52640D01*
X201060Y52167D01*
X200481Y51832D01*
X199834Y51659D01*
X192023Y51659D01*
X192023Y60677D01*
G37*
%LPD*%
%LPC*%
G36*
X141223Y60677D02*
X141223Y60677D01*
X151241Y60677D01*
X151241Y53866D01*
X151068Y53219D01*
X150733Y52640D01*
X150260Y52167D01*
X149681Y51832D01*
X149034Y51659D01*
X141223Y51659D01*
X141223Y60677D01*
G37*
%LPD*%
%LPC*%
G36*
X178959Y63723D02*
X178959Y63723D01*
X178959Y70534D01*
X179132Y71181D01*
X179467Y71760D01*
X179940Y72233D01*
X180519Y72568D01*
X181166Y72741D01*
X188977Y72741D01*
X188977Y63723D01*
X178959Y63723D01*
G37*
%LPD*%
%LPC*%
G36*
X128159Y63723D02*
X128159Y63723D01*
X128159Y70534D01*
X128332Y71181D01*
X128667Y71760D01*
X129140Y72233D01*
X129719Y72568D01*
X130366Y72741D01*
X138177Y72741D01*
X138177Y63723D01*
X128159Y63723D01*
G37*
%LPD*%
%LPC*%
G36*
X181166Y51659D02*
X181166Y51659D01*
X180519Y51832D01*
X179940Y52167D01*
X179467Y52640D01*
X179132Y53219D01*
X178959Y53866D01*
X178959Y60677D01*
X188977Y60677D01*
X188977Y51659D01*
X181166Y51659D01*
G37*
%LPD*%
%LPC*%
G36*
X130366Y51659D02*
X130366Y51659D01*
X129719Y51832D01*
X129140Y52167D01*
X128667Y52640D01*
X128332Y53219D01*
X128159Y53866D01*
X128159Y60677D01*
X138177Y60677D01*
X138177Y51659D01*
X130366Y51659D01*
G37*
%LPD*%
%LPC*%
G36*
X163523Y179323D02*
X163523Y179323D01*
X163523Y186881D01*
X168874Y186881D01*
X169521Y186708D01*
X170100Y186373D01*
X170573Y185900D01*
X170908Y185321D01*
X171081Y184674D01*
X171081Y179323D01*
X163523Y179323D01*
G37*
%LPD*%
%LPC*%
G36*
X166623Y128523D02*
X166623Y128523D01*
X166623Y136081D01*
X171974Y136081D01*
X172621Y135908D01*
X173200Y135573D01*
X173673Y135100D01*
X174008Y134521D01*
X174181Y133874D01*
X174181Y128523D01*
X166623Y128523D01*
G37*
%LPD*%
%LPC*%
G36*
X152919Y179323D02*
X152919Y179323D01*
X152919Y184674D01*
X153092Y185321D01*
X153427Y185900D01*
X153900Y186373D01*
X154479Y186708D01*
X155126Y186881D01*
X160477Y186881D01*
X160477Y179323D01*
X152919Y179323D01*
G37*
%LPD*%
%LPC*%
G36*
X156019Y128523D02*
X156019Y128523D01*
X156019Y133874D01*
X156192Y134521D01*
X156527Y135100D01*
X157000Y135573D01*
X157579Y135908D01*
X158226Y136081D01*
X163577Y136081D01*
X163577Y128523D01*
X156019Y128523D01*
G37*
%LPD*%
%LPC*%
G36*
X163523Y168719D02*
X163523Y168719D01*
X163523Y176277D01*
X171081Y176277D01*
X171081Y170926D01*
X170908Y170279D01*
X170573Y169700D01*
X170100Y169227D01*
X169521Y168892D01*
X168874Y168719D01*
X163523Y168719D01*
G37*
%LPD*%
%LPC*%
G36*
X166623Y117919D02*
X166623Y117919D01*
X166623Y125477D01*
X174181Y125477D01*
X174181Y120126D01*
X174008Y119479D01*
X173673Y118900D01*
X173200Y118427D01*
X172621Y118092D01*
X171974Y117919D01*
X166623Y117919D01*
G37*
%LPD*%
%LPC*%
G36*
X155126Y168719D02*
X155126Y168719D01*
X154479Y168892D01*
X153900Y169227D01*
X153427Y169700D01*
X153092Y170279D01*
X152919Y170926D01*
X152919Y176277D01*
X160477Y176277D01*
X160477Y168719D01*
X155126Y168719D01*
G37*
%LPD*%
%LPC*%
G36*
X158226Y117919D02*
X158226Y117919D01*
X157579Y118092D01*
X157000Y118427D01*
X156527Y118900D01*
X156192Y119479D01*
X156019Y120126D01*
X156019Y125477D01*
X163577Y125477D01*
X163577Y117919D01*
X158226Y117919D01*
G37*
%LPD*%
%LPC*%
G36*
X268223Y67223D02*
X268223Y67223D01*
X268223Y74241D01*
X273034Y74241D01*
X273681Y74068D01*
X274260Y73733D01*
X274733Y73260D01*
X275068Y72681D01*
X275241Y72034D01*
X275241Y67223D01*
X268223Y67223D01*
G37*
%LPD*%
%LPC*%
G36*
X258159Y67223D02*
X258159Y67223D01*
X258159Y72034D01*
X258332Y72681D01*
X258667Y73260D01*
X259140Y73733D01*
X259719Y74068D01*
X260366Y74241D01*
X265177Y74241D01*
X265177Y67223D01*
X258159Y67223D01*
G37*
%LPD*%
%LPC*%
G36*
X268223Y57159D02*
X268223Y57159D01*
X268223Y64177D01*
X275241Y64177D01*
X275241Y59366D01*
X275068Y58719D01*
X274733Y58140D01*
X274260Y57667D01*
X273681Y57332D01*
X273034Y57159D01*
X268223Y57159D01*
G37*
%LPD*%
%LPC*%
G36*
X260366Y57159D02*
X260366Y57159D01*
X259719Y57332D01*
X259140Y57667D01*
X258667Y58140D01*
X258332Y58719D01*
X258159Y59366D01*
X258159Y64177D01*
X265177Y64177D01*
X265177Y57159D01*
X260366Y57159D01*
G37*
%LPD*%
%LPC*%
G36*
X161999Y177799D02*
X161999Y177799D01*
X161999Y177801D01*
X162001Y177801D01*
X162001Y177799D01*
X161999Y177799D01*
G37*
%LPD*%
%LPC*%
G36*
X165099Y126999D02*
X165099Y126999D01*
X165099Y127001D01*
X165101Y127001D01*
X165101Y126999D01*
X165099Y126999D01*
G37*
%LPD*%
%LPC*%
G36*
X266699Y65699D02*
X266699Y65699D01*
X266699Y65701D01*
X266701Y65701D01*
X266701Y65699D01*
X266699Y65699D01*
G37*
%LPD*%
%LPC*%
G36*
X190499Y62199D02*
X190499Y62199D01*
X190499Y62201D01*
X190501Y62201D01*
X190501Y62199D01*
X190499Y62199D01*
G37*
%LPD*%
%LPC*%
G36*
X139699Y62199D02*
X139699Y62199D01*
X139699Y62201D01*
X139701Y62201D01*
X139701Y62199D01*
X139699Y62199D01*
G37*
%LPD*%
D10*
X266700Y65700D03*
X266700Y86700D03*
D11*
X281940Y127000D03*
X251460Y127000D03*
D12*
X139700Y127000D03*
X165100Y127000D03*
X190500Y127000D03*
X127000Y177800D03*
X162000Y177800D03*
D13*
X139700Y90200D03*
X139700Y62200D03*
X190500Y62200D03*
X190500Y90200D03*
D14*
X140208Y91440D02*
X140208Y126492D01*
X140208Y91440D02*
X139700Y90200D01*
X140208Y126492D02*
X139700Y127000D01*
D15*
X128016Y138684D02*
X128016Y176784D01*
D14*
X128016Y138684D02*
X139700Y127000D01*
X128016Y176784D02*
X127000Y177800D01*
X163068Y176784D02*
X163068Y129540D01*
X164592Y128016D01*
X163068Y176784D02*
X162000Y177800D01*
X164592Y128016D02*
X165100Y127000D01*
X193548Y65532D02*
X266700Y65532D01*
X193548Y65532D02*
X190500Y62484D01*
X266700Y65532D02*
X266700Y65700D01*
X190500Y62484D02*
X166116Y62484D01*
X140208Y62484D01*
X139700Y62200D01*
X190500Y62484D02*
X190500Y62200D01*
X166116Y62484D02*
X166116Y126492D01*
X165100Y127000D01*
X190500Y128016D02*
X251460Y128016D01*
X251460Y127000D01*
X190500Y127000D02*
X190500Y128016D01*
X190500Y127000D02*
X190500Y90200D01*
X266700Y86700D02*
X266700Y111252D01*
X281940Y126492D01*
X281940Y127000D01*
M02*
